<svg width="246" height="381" viewBox="0 0 246 381" fill="none" xmlns="http://www.w3.org/2000/svg">
<path d="M188.186 10.5312V0.53125H178.186V10.5312H188.186ZM235.305 10.5312H245.305V0.53125H235.305V10.5312ZM204.543 342.074L197.707 334.775L197.693 334.789L197.678 334.802L204.543 342.074ZM10.9395 267.855V257.855H0.939453V267.855H10.9395ZM57.8145 267.855H67.8145V257.855H57.8145V267.855ZM74.416 315.463L67.2432 322.431L67.2686 322.457L67.2943 322.483L74.416 315.463ZM169.875 314.242L162.757 307.219L162.733 307.243L162.709 307.267L169.875 314.242ZM188.186 262.973L198.185 263.047L198.186 263.01V262.973H188.186ZM188.186 20.5312H235.305V0.53125H188.186V20.5312ZM225.305 10.5312V262.24H245.305V10.5312H225.305ZM225.305 262.24C225.305 294.12 215.779 317.851 197.707 334.775L211.379 349.373C234.322 327.886 245.305 298.395 245.305 262.24H225.305ZM197.678 334.802C179.573 351.894 155.046 360.883 123 360.883V380.883C158.987 380.883 188.822 370.666 211.407 349.346L197.678 334.802ZM123 360.883C89.3607 360.883 64.5616 352.304 47.2405 336.414L33.7205 351.152C55.7873 371.395 86.0012 380.883 123 380.883V360.883ZM47.2405 336.414C30.0517 320.646 20.9395 298.266 20.9395 267.855H0.939453C0.939453 302.55 11.5212 330.788 33.7205 351.152L47.2405 336.414ZM10.9395 277.855H57.8145V257.855H10.9395V277.855ZM47.8145 267.855C47.8145 290.04 53.893 308.688 67.2432 322.431L81.5888 308.495C72.8036 299.451 67.8145 286.361 67.8145 267.855H47.8145ZM67.2943 322.483C80.9519 336.339 100.061 342.553 123 342.553V322.553C103.621 322.553 90.341 317.374 81.5378 308.443L67.2943 322.483ZM123 342.553C144.663 342.553 163.013 335.63 177.041 321.217L162.709 307.267C152.974 317.269 140.074 322.553 123 322.553V342.553ZM176.993 321.266C191.34 306.725 198.009 286.859 198.185 263.047L178.186 262.899C178.037 283.032 172.498 297.345 162.757 307.219L176.993 321.266ZM198.186 262.973V10.5312H178.186V262.973H198.186Z" fill="#55736C" fill-opacity="0.1"/>
</svg>
