<svg width="276" height="376" viewBox="0 0 276 376" fill="none" xmlns="http://www.w3.org/2000/svg">
<path d="M57.1348 226.84V216.84H47.1348V226.84H57.1348ZM57.1348 366V376H67.1348V366H57.1348ZM10.2598 366H0.259766V376H10.2598V366ZM10.2598 10.5312V0.53125H0.259766V10.5312H10.2598ZM232.672 40.3164L225.967 47.7357L225.981 47.748L225.994 47.7602L232.672 40.3164ZM233.404 199.008L239.94 206.576L239.945 206.572L233.404 199.008ZM57.1348 188.51H47.1348V198.51H57.1348V188.51ZM198.98 170.932L205.578 178.446L205.604 178.423L205.63 178.401L198.98 170.932ZM144.049 49.1055L144.259 39.1077L144.154 39.1055H144.049V49.1055ZM57.1348 49.1055V39.1055H47.1348V49.1055H57.1348ZM47.1348 226.84V366H67.1348V226.84H47.1348ZM57.1348 356H10.2598V376H57.1348V356ZM20.2598 366V10.5312H0.259766V366H20.2598ZM10.2598 20.5312H141.363V0.53125H10.2598V20.5312ZM141.363 20.5312C178.58 20.5312 206.347 30.0051 225.967 47.7357L239.377 32.8971C215.051 10.9141 181.946 0.53125 141.363 0.53125V20.5312ZM225.994 47.7602C245.79 65.5177 255.875 88.9814 255.875 119.174H275.875C275.875 83.9366 263.825 54.8287 239.349 32.8726L225.994 47.7602ZM255.875 119.174C255.875 151.429 245.863 175.015 226.864 191.443L239.945 206.572C264.24 185.566 275.875 155.929 275.875 119.174H255.875ZM226.868 191.44C207.829 207.882 179.665 216.84 140.875 216.84V236.84C182.489 236.84 216.01 227.243 239.94 206.576L226.868 191.44ZM140.875 216.84H57.1348V236.84H140.875V216.84ZM57.1348 198.51H141.363V178.51H57.1348V198.51ZM141.363 198.51C167.865 198.51 189.779 192.318 205.578 178.446L192.382 163.417C181.489 172.982 164.992 178.51 141.363 178.51V198.51ZM205.63 178.401C221.617 164.168 229 144.052 229 119.662H209C209 139.868 203.036 153.932 192.331 163.463L205.63 178.401ZM229 119.662C229 96.2097 221.505 76.5047 205.873 61.6353L192.088 76.1264C203.149 86.6477 209 100.797 209 119.662H229ZM205.873 61.6353C190.28 46.8028 169.343 39.6339 144.259 39.1077L143.839 59.1033C165.304 59.5536 180.989 65.5683 192.088 76.1264L205.873 61.6353ZM144.049 39.1055H57.1348V59.1055H144.049V39.1055ZM47.1348 49.1055V188.51H67.1348V49.1055H47.1348Z" fill="#55736C" fill-opacity="0.1"/>
</svg>
