<svg width="256" height="228" viewBox="0 0 256 228" fill="none" xmlns="http://www.w3.org/2000/svg">
<path d="M210.483 73.8239C207.759 72.8892 205.011 72.0233 202.243 71.2269C202.708 69.3269 203.136 67.4499 203.516 65.6059C209.754 35.3249 205.676 10.9299 191.747 2.89795C178.392 -4.80205 156.551 3.22695 134.493 22.4239C132.319 24.3193 130.193 26.2692 128.118 28.2719C126.729 26.9402 125.315 25.6343 123.877 24.3549C100.759 3.82895 77.587 -4.82205 63.673 3.23295C50.33 10.9569 46.379 33.8899 51.995 62.5879C52.5537 65.4302 53.1846 68.2578 53.887 71.0679C50.607 71.9999 47.442 72.9919 44.413 74.0479C17.309 83.4979 0 98.3069 0 113.668C0 129.533 18.582 145.446 46.812 155.095C49.1007 155.874 51.4084 156.596 53.733 157.26C52.978 160.287 52.3078 163.334 51.723 166.398C46.369 194.598 50.55 216.989 63.857 224.664C77.601 232.59 100.669 224.444 123.13 204.809C124.951 203.213 126.733 201.571 128.472 199.886C130.72 202.055 133.027 204.16 135.392 206.2C157.15 224.922 178.638 232.482 191.932 224.786C205.663 216.837 210.126 192.783 204.332 163.518C203.876 161.225 203.364 158.944 202.797 156.676C204.417 156.196 206.007 155.702 207.557 155.188C236.905 145.465 256 129.745 256 113.668C256 98.2509 238.132 83.3419 210.483 73.8239V73.8239ZM204.118 144.808C202.718 145.271 201.282 145.718 199.818 146.153C196.578 135.896 192.206 124.99 186.855 113.721C191.961 102.721 196.165 91.9539 199.314 81.7639C201.933 82.5219 204.474 83.3209 206.924 84.1639C230.614 92.3199 245.064 104.377 245.064 113.668C245.064 123.564 229.458 136.411 204.118 144.808V144.808ZM193.604 165.642C196.166 178.582 196.531 190.282 194.834 199.429C193.31 207.648 190.244 213.127 186.452 215.322C178.385 219.992 161.132 213.922 142.525 197.91C140.325 196.013 138.179 194.056 136.088 192.04C143.302 184.151 150.511 174.98 157.547 164.794C169.923 163.696 181.615 161.9 192.218 159.449C192.74 161.556 193.204 163.622 193.604 165.642V165.642ZM87.276 214.515C79.394 217.298 73.116 217.378 69.321 215.19C61.246 210.533 57.889 192.554 62.468 168.438C63.0123 165.588 63.6356 162.754 64.337 159.939C74.823 162.259 86.43 163.927 98.835 164.933C105.919 174.9 113.336 184.061 120.811 192.083C119.222 193.62 117.596 195.118 115.934 196.575C106.001 205.257 96.048 211.417 87.276 214.515V214.515ZM50.35 144.747C37.867 140.48 27.558 134.935 20.492 128.884C14.142 123.447 10.937 118.048 10.937 113.668C10.937 104.346 24.834 92.4559 48.013 84.3749C50.826 83.3949 53.77 82.4699 56.825 81.6019C60.029 92.0219 64.231 102.917 69.302 113.934C64.165 125.114 59.903 136.183 56.668 146.726C54.5461 146.118 52.4395 145.458 50.35 144.747V144.747ZM62.728 60.4869C57.917 35.8999 61.112 17.3529 69.153 12.6979C77.717 7.73995 96.655 14.8089 116.616 32.5329C117.918 33.6913 119.198 34.8732 120.457 36.0779C113.019 44.0649 105.67 53.1579 98.649 63.0659C86.609 64.1819 75.084 65.9739 64.488 68.3749C63.8352 65.7611 63.2483 63.1313 62.728 60.4879V60.4869ZM173.155 87.7549C170.652 83.4319 168.057 79.1632 165.37 74.952C173.538 75.985 181.364 77.3559 188.713 79.0319C186.507 86.1039 183.757 93.497 180.52 101.077C178.154 96.5877 175.698 92.1461 173.155 87.7549V87.7549ZM128.123 43.8939C133.167 49.3589 138.219 55.4599 143.188 62.0799C133.108 61.6039 123.011 61.6019 112.931 62.0739C117.905 55.5149 123 49.4219 128.123 43.8939ZM82.802 87.8299C80.2903 92.1858 77.8807 96.5997 75.575 101.068C72.391 93.5149 69.666 86.0879 67.441 78.9159C74.745 77.2819 82.534 75.9459 90.65 74.9319C87.9334 79.1689 85.3167 83.4691 82.802 87.8289V87.8299ZM90.883 153.182C82.498 152.246 74.592 150.979 67.29 149.389C69.55 142.089 72.335 134.504 75.588 126.789C77.9028 131.261 80.3225 135.677 82.845 140.035C85.439 144.515 88.125 148.903 90.883 153.182ZM128.425 184.212C123.241 178.62 118.071 172.433 113.022 165.779C117.924 165.971 122.921 166.069 128 166.069C133.218 166.069 138.376 165.952 143.453 165.726C138.468 172.5 133.435 178.696 128.425 184.212ZM180.623 126.395C184.045 134.195 186.929 141.74 189.219 148.915C181.797 150.609 173.783 151.973 165.339 152.986C168.045 148.696 170.665 144.354 173.198 139.96C175.773 135.494 178.249 130.971 180.623 126.395V126.395ZM163.725 134.496C159.847 141.232 155.751 147.841 151.444 154.311C143.642 154.864 135.822 155.138 128 155.134C120.033 155.134 112.284 154.886 104.822 154.402C100.402 147.947 96.2282 141.327 92.309 134.556H92.31C88.4092 127.821 84.7656 120.94 81.387 113.929C84.757 106.916 88.3895 100.032 92.277 93.2919L92.276 93.2929C96.162 86.5512 100.303 79.9594 104.689 73.5319C112.302 72.9559 120.109 72.6559 127.999 72.6559H128C135.926 72.6559 143.743 72.9589 151.354 73.5389C155.696 79.9568 159.81 86.5259 163.689 93.2339C167.589 99.9591 171.27 106.809 174.725 113.774C171.306 120.81 167.637 127.721 163.725 134.496V134.496ZM186.285 12.3719C194.857 17.3159 198.191 37.2529 192.805 63.3979C192.461 65.0659 192.075 66.7649 191.655 68.4879C181.033 66.0359 169.5 64.2129 157.425 63.0799C150.391 53.0629 143.102 43.9559 135.785 36.0719C137.703 34.2235 139.666 32.4229 141.673 30.6719C160.573 14.2249 178.237 7.73095 186.285 12.3719V12.3719ZM128 90.8079C140.625 90.8079 150.86 101.043 150.86 113.668C150.86 126.293 140.625 136.528 128 136.528C115.375 136.528 105.14 126.293 105.14 113.668C105.14 101.043 115.375 90.8079 128 90.8079V90.8079Z" fill="#00D8FF"/>
</svg>
