<svg width="26" height="29" viewBox="0 0 26 29" fill="none" xmlns="http://www.w3.org/2000/svg">
<path d="M20.1921 1.24194H2.62306C2.05571 1.24353 1.51206 1.4696 1.11089 1.87078C0.709716 2.27195 0.483639 2.8156 0.482056 3.38294V22.7589C0.483639 23.3263 0.709716 23.8699 1.11089 24.2711C1.51206 24.6723 2.05571 24.8984 2.62306 24.8999H14.1951C14.0631 19.1419 16.0301 7.96794 20.1921 1.24194V1.24194Z" fill="#0F80CC"/>
<path d="M19.5541 1.86694H2.62306C2.22115 1.86747 1.83586 2.02736 1.55167 2.31155C1.26748 2.59574 1.10758 2.98104 1.10706 3.38294V21.3449C5.45069 19.7067 10.0358 18.7997 14.6761 18.6609C15.9033 12.9548 17.5334 7.3427 19.5541 1.86694V1.86694Z" fill="url(#paint0_linear)"/>
<path d="M24.29 0.607982C23.09 -0.465018 21.63 -0.0340182 20.19 1.24198C19.977 1.43198 19.764 1.64198 19.552 1.86698C16.8431 5.07075 14.97 8.89566 14.1 13C14.3686 13.5859 14.5809 14.1959 14.734 14.822C14.77 14.962 14.803 15.094 14.834 15.206C14.896 15.471 14.934 15.643 14.934 15.643C14.934 15.643 14.912 15.56 14.821 15.297L14.762 15.127C14.7501 15.0953 14.7375 15.064 14.724 15.033C14.564 14.66 14.124 13.873 13.924 13.533C13.757 14.026 13.609 14.487 13.486 14.904C13.9012 15.797 14.2061 16.7373 14.394 17.704C14.394 17.704 14.364 17.589 14.223 17.189C13.9521 16.6048 13.6517 16.0347 13.323 15.481C13.1105 16.0295 13.0204 16.6179 13.059 17.205C13.2793 17.6441 13.4448 18.1086 13.552 18.588C13.886 19.871 14.118 21.434 14.118 21.434L14.138 21.697C14.0941 22.7656 14.1158 23.836 14.203 24.902C14.2526 25.9574 14.4492 27.0008 14.787 28.002L14.967 27.902C14.548 26.3973 14.3864 24.8326 14.489 23.274C14.6773 19.9697 15.3297 16.7084 16.427 13.586C18.437 8.27798 21.227 4.01798 23.777 1.98598C21.451 4.08598 18.303 10.886 17.36 13.404C16.367 15.9966 15.6126 18.6743 15.106 21.404C15.7089 19.8806 16.8892 18.6571 18.39 18C18.39 18 19.623 16.479 21.064 14.307C20.1331 14.5011 19.2134 14.7458 18.309 15.04C17.609 15.334 17.42 15.434 17.42 15.434C18.7563 14.6293 20.168 13.9571 21.635 13.427C24.311 9.21198 27.227 3.22698 24.291 0.602982" fill="#003B57"/>
<defs>
<linearGradient id="paint0_linear" x1="10.3091" y1="2.3064" x2="10.3091" y2="20.305" gradientUnits="userSpaceOnUse">
<stop stop-color="#97D9F6"/>
<stop offset="0.92" stop-color="#0F80CC"/>
<stop offset="1" stop-color="#0F80CC"/>
</linearGradient>
</defs>
</svg>
